<?xml version="1.0" encoding="utf-8"?>
<!-- Generator: Adobe Illustrator 27.4.1, SVG Export Plug-In . SVG Version: 6.00 Build 0)  -->
<svg version="1.1" id="Camada_1" xmlns="http://www.w3.org/2000/svg" xmlns:xlink="http://www.w3.org/1999/xlink" x="0px" y="0px"
	 viewBox="0 0 235.82 50.03" style="enable-background:new 0 0 235.82 50.03;" xml:space="preserve">
<style type="text/css">
	.st0{clip-path:url(#SVGID_00000083802333224719695990000001847026836378719926_);fill:#E5464C;}
	.st1{clip-path:url(#SVGID_00000083802333224719695990000001847026836378719926_);fill:#280F43;}
</style>
<g id="LOGOTIPO">
	<g>
		<defs>
			<rect id="SVGID_1_" width="235.82" height="50.03"/>
		</defs>
		<clipPath id="SVGID_00000128462537714431754550000017920070899595876780_">
			<use xlink:href="#SVGID_1_"  style="overflow:visible;"/>
		</clipPath>
		<path style="clip-path:url(#SVGID_00000128462537714431754550000017920070899595876780_);fill:#E5464C;" d="M29.14,35.58
			l-5.45,6.64H8.53V28.64h15.16v0h0.05L29.14,35.58z M26.21,14.73l0.02,0.02l-1.59,2.03l-3.5,4.56H8.53V8.12h12.6v0h0.01
			L26.21,14.73L26.21,14.73L26.21,14.73z M35.34,29.88l-5.15-6.63l2.17-2.79l4.46-5.7l-4.77-6.14l-6.32-8.18h-1.8h-8.8H8.56H0v7.69
			v34.09v7.69h8.56h9.55h5.83h4.77l6.63-8.55l4.4-5.77L35.34,29.88z M84.56,27.65c2.67-2.67,4.15-6.38,4.15-10.72V16.8v-0.31v-0.25
			v-0.12c0-4.34-1.49-8.06-4.15-10.73c-3.1-3.16-8.06-4.96-14.26-4.96H48.17v4.34v3.59H58.4h11.16c6.45,0,10.29,2.85,10.29,8.12
			c0,5.15-3.72,8-9.86,8.12l-10.35,0.06H48.17v3.6v4.34v17.42h8.74V32.61h8.31l12.27,17.42h10.35L75.13,32.17
			C79.1,31.43,82.32,29.88,84.56,27.65 M137.93,28.14V11.78V0.43h-8.55v11.72c0,0.57-0.02,1.13-0.06,1.66l-0.06,16.78l-0.01,0.01
			c-0.65,7.62-5.17,11.49-12.14,11.49c-6.93,0-11.45-3.96-12.21-11.44l-0.01,0l-0.1-16.84c-0.05-0.64-0.09-1.29-0.09-1.98V0.43
			h-8.55v11.72v16.37c0,14.2,8.12,21.51,20.77,21.51C129.69,50.03,137.93,42.71,137.93,28.14 M177.42,8.5h8.8V8.49V0.43h-8.8h-22.63
			h-8.8v8.06V8.5h8.8V8.49h6.94v41.53h8.74V8.49L177.42,8.5L177.42,8.5z M223.31,42.26h-0.03l0.01,0.02h-6.45l-0.01-0.02h-8.8
			l0.01,0.02h-11.78l0.01-0.02h-0.05l13.54-31.92L223.31,42.26z M235.82,50.03L213.99,0h-8.12l-21.88,50.03h7.32h1.67h18.41h8.8
			h6.38h1.92H235.82z"/>
		<path style="clip-path:url(#SVGID_00000128462537714431754550000017920070899595876780_);fill:#280F43;" d="M7.57,42.43"/>
	</g>
</g>
</svg>
